<svg width="480" height="480" viewBox="0 0 480 480" fill="none" xmlns="http://www.w3.org/2000/svg">
<path d="M212.476 321C199.412 321 178.86 315.191 150.82 303.573C122.78 291.954 98.8824 286.145 79.127 286.145C73.3915 286.145 64.7884 291.519 53.3175 302.266C41.8466 313.012 34.6772 318.386 31.8095 318.386C28.9418 318.386 24.6402 316.788 18.9048 313.593C13.1693 310.398 8.86772 307.203 6 304.008C18.7454 280.481 47.582 244.029 92.5097 194.651C137.437 145.274 171.372 104.755 194.314 73.0954C163.088 69.3195 138.553 67.4316 120.709 67.4316C93.9436 67.4316 74.8254 70.3361 63.3545 76.1452L57.619 79.195C56.9818 79.195 55.7072 76.8714 53.7954 72.2241C48.06 58.2822 45.1922 46.083 45.1922 35.6266C45.1922 25.1701 46.1481 17.9087 48.06 13.8423C61.124 8.61412 75.7813 6 92.0317 6C108.282 6 130.268 7.74275 157.989 11.2282C186.029 14.4232 208.175 16.0207 224.425 16.0207C240.675 16.0207 255.173 14.7137 267.919 12.0996L277 31.7054C256.607 61.332 228.249 96.4772 191.924 137.141C155.6 177.805 129.153 209.755 112.584 232.992C125.966 233.863 145.085 237.929 169.938 245.191C194.792 252.162 211.998 255.647 221.557 255.647C231.116 255.647 237.808 254.195 241.631 251.29C245.455 248.386 250.394 241.851 256.448 231.685L271.743 236.041C270.149 256.664 267.122 273.51 262.661 286.581C255.014 309.527 238.286 321 212.476 321Z" fill="#BE03E8"/>
<path d="M267.842 153L426.053 157.875L470.579 156.989C471.526 163.194 472 169.694 472 176.49C472 183.285 470.737 188.16 468.211 191.115C465.684 194.07 461.105 195.547 454.474 195.547C453.842 195.547 431.579 193.626 387.684 189.785C386.421 203.081 381.684 225.832 373.474 258.038C365.263 290.244 357.368 324.665 349.789 361.303C342.211 397.941 338.263 430.885 337.947 460.136C325.632 466.045 300.368 469 262.158 469H258.842C258.842 453.636 267.842 407.839 285.842 331.609C303.842 255.379 312.842 208.991 312.842 192.445C312.842 191.263 312.526 189.194 311.895 186.24H292.947C267.053 186.24 247.158 189.933 233.263 197.32C226 188.456 221.579 175.455 220 158.318C230.737 154.773 246.684 153 267.842 153Z" fill="#0357E8"/>
</svg>
